<?xml version="1.0" encoding="UTF-8" standalone="no"?>
<svg
   xmlns:dc="http://purl.org/dc/elements/1.1/"
   xmlns:cc="http://creativecommons.org/ns#"
   xmlns:rdf="http://www.w3.org/1999/02/22-rdf-syntax-ns#"
   xmlns:svg="http://www.w3.org/2000/svg"
   xmlns="http://www.w3.org/2000/svg"
   viewBox="0 0 702.99731 873.2373"
   height="873.2373"
   width="702.99731"
   xml:space="preserve"
   id="svg2"
   version="1.1"><metadata
     id="metadata8"><rdf:RDF><cc:Work
         rdf:about=""><dc:format>image/svg+xml</dc:format><dc:type
           rdf:resource="http://purl.org/dc/dcmitype/StillImage" /></cc:Work></rdf:RDF></metadata><defs
     id="defs6" /><g
     transform="matrix(1.3333333,0,0,-1.3333333,0,873.23733)"
     id="g10"><path
       id="path12"
       style="fill:#234c23;fill-opacity:1;fill-rule:evenodd;stroke:none"
       d="M 0,173.303 H 527.244 V 654.928 H 0 Z m 263.622,428.9 c 107.654,0 195.055,-83.903 195.055,-187.249 0,-103.346 -87.401,-187.249 -195.055,-187.249 -107.654,0 -195.0549,83.903 -195.0549,187.249 0,103.346 87.4009,187.249 195.0549,187.249 z" /><path
       id="path14"
       style="fill:#13100f;fill-opacity:1;fill-rule:nonzero;stroke:none"
       d="m 303.307,547.916 c 0,-7.086 6.024,-14.527 13.465,-16.653 1.771,-0.496 3.33,-0.992 3.472,-1.063 0.425,-0.355 -2.268,-13.748 -2.764,-13.748 -0.212,0 -0.779,1.063 -1.275,2.409 -1.914,5.173 -9.425,10.347 -15.166,10.347 -1.984,0 -2.055,-0.071 -1.559,-2.622 1.205,-7.158 6.237,-12.898 12.827,-14.812 2.055,-0.637 3.756,-1.488 3.756,-1.984 0,-2.267 -3.26,-10.063 -5.882,-14.031 l -2.905,-4.465 -0.496,3.189 c -1.276,8.575 -7.158,14.811 -15.237,16.087 -2.197,0.354 -2.409,0.212 -2.409,-1.347 0,-7.299 5.74,-14.882 12.968,-17.149 2.197,-0.709 4.04,-1.488 4.04,-1.772 0,-0.709 -11.268,-11.764 -11.622,-11.339 -0.213,0.142 -5.244,12.119 -11.268,26.504 l -10.984,26.221 -6.733,0.212 c -4.96,0.142 -6.803,-0.07 -7.086,-0.708 -0.567,-1.418 -36,-91.418 -36.638,-93.047 -0.496,-1.276 -0.638,-1.063 -1.63,1.275 -2.976,7.087 -9.212,12.827 -16.583,15.307 -4.96,1.701 -12.259,2.055 -12.259,0.638 0,-1.417 1.913,-7.299 3.047,-9.496 3.614,-7.016 12.401,-12.827 20.268,-13.535 2.338,-0.213 4.322,-0.638 4.322,-0.993 0,-0.496 -19.771,-51.165 -20.055,-51.378 -0.212,-0.141 -16.228,6.662 -16.512,7.016 -0.212,0.142 0.284,1.701 1.063,3.402 1.914,4.323 2.268,8.645 1.063,12.614 -1.133,3.898 -4.96,9.496 -6.165,9.071 -0.425,-0.142 -1.63,-1.772 -2.551,-3.614 -2.48,-4.89 -2.339,-11.126 0.496,-16.3 l 2.055,-3.826 -7.512,3.401 c -13.11,5.882 -12.33,5.315 -10.134,7.299 4.536,4.111 6.237,14.315 3.26,19.843 l -1.417,2.764 -2.268,-1.914 -2.268,-1.842 1.063,2.48 c 0.567,1.347 1.063,3.331 1.063,4.394 0,1.842 -0.07,1.913 -3.614,1.488 -6.519,-0.779 -13.181,-6.094 -14.882,-11.905 l -0.779,-2.552 -2.48,2.693 c -3.898,4.252 -7.725,5.811 -14.032,5.457 -2.905,-0.142 -5.669,-0.638 -6.165,-1.134 -1.347,-1.346 2.622,-6.307 7.228,-8.929 3.402,-1.913 4.536,-2.126 9.567,-2.197 h 5.669 l 5.528,-3.898 5.598,-3.897 -4.535,-0.425 c -2.48,-0.284 -5.315,-0.78 -6.378,-1.205 -2.48,-0.992 -8.362,-6.378 -8.362,-7.583 0,-1.701 6.023,-3.401 10.488,-2.976 5.173,0.425 8.149,1.913 11.905,5.882 l 2.835,3.047 8.646,-4.039 c 4.748,-2.197 8.645,-4.181 8.645,-4.394 0,-0.213 -1.417,-0.78 -3.189,-1.276 -1.771,-0.496 -4.464,-1.984 -6.094,-3.472 -2.976,-2.693 -6.591,-9.071 -5.811,-10.347 0.638,-0.992 8.787,-0.141 11.409,1.205 3.685,1.914 6.874,5.103 8.292,8.362 0.779,1.701 1.417,3.118 1.417,3.189 0.142,0.284 16.583,-6.519 17.079,-7.015 0.638,-0.709 -11.622,-26.646 -13.607,-28.843 -0.141,-0.142 -5.598,-1.276 -12.118,-2.551 l -11.905,-2.197 -0.425,-5.953 h 76.677 l -0.213,3.048 -0.212,2.976 -16.229,2.126 c -9.567,1.275 -16.37,2.48 -16.512,2.976 -0.354,0.992 7.937,25.654 12.685,37.772 l 3.827,9.567 38.055,0.212 38.126,0.142 3.827,-7.937 c 6.095,-12.827 14.244,-38.764 12.685,-40.181 -0.354,-0.283 -8.079,-1.488 -17.079,-2.551 l -16.511,-1.984 v -6.166 l 47.267,0.142 47.197,0.213 0.284,1.63 c 0.496,3.401 -0.567,3.968 -11.197,6.165 -6.378,1.346 -10.559,2.551 -11.197,3.331 -1.205,1.275 -12.543,22.889 -14.811,28.204 l -1.347,3.189 h 7.867 c 6.378,0 8.858,0.284 13.11,1.701 10.842,3.543 20.409,11.835 25.653,22.323 3.756,7.441 3.685,7.866 -1.275,8.858 -11.41,2.268 -24.945,-0.921 -34.583,-8.22 -4.039,-3.118 -10.346,-10.701 -12.118,-14.528 -0.638,-1.488 -1.417,-2.693 -1.701,-2.693 -0.496,0 -6.59,14.315 -30.331,71.008 l -7.015,16.725 12.472,12.472 3.402,-1.701 c 6.732,-3.401 14.456,-2.551 20.055,2.126 2.409,1.984 2.48,2.055 1.063,3.118 -0.78,0.567 -2.551,1.63 -3.898,2.339 -3.401,1.701 -11.48,1.63 -14.811,-0.071 l -2.409,-1.276 1.771,3.048 c 0.993,1.7 2.481,5.315 3.402,7.937 1.488,4.677 1.63,4.819 3.472,4.252 0.993,-0.284 4.111,-0.567 6.804,-0.567 4.11,0 5.527,0.354 8.291,1.984 2.976,1.701 6.945,5.811 6.945,7.157 0,0.993 -5.032,2.552 -8.362,2.552 -4.748,0 -9.355,-1.701 -12.331,-4.607 l -2.48,-2.48 1.559,7.866 c 0.85,4.252 1.771,7.937 1.913,8.079 0.213,0.212 2.126,0 4.323,-0.425 4.677,-0.992 9,-0.142 13.252,2.551 2.693,1.701 5.669,5.173 5.669,6.661 0,0.425 -1.772,1.276 -3.898,1.914 -6.236,1.771 -12.472,0.071 -17.22,-4.677 l -2.197,-2.197 -0.779,2.763 c -1.63,6.308 -7.867,11.764 -14.386,12.615 -2.977,0.425 -3.331,0.354 -3.331,-0.851 z m -16.016,-93.897 c 12.615,-30.544 27.355,-66.048 32.67,-78.945 5.385,-12.827 9.921,-23.953 10.133,-24.662 0.284,-1.063 0,-1.275 -1.629,-1.063 -1.985,0.213 -2.906,2.339 -34.441,77.528 l -32.386,77.386 0.779,3.685 c 0.496,2.551 0.922,3.401 1.276,2.622 0.354,-0.567 10.913,-26.008 23.598,-56.551 z m -17.22,7.441 c 14.527,-33.237 21.189,-48.827 21.189,-49.749 0,-0.425 -2.48,-0.992 -5.457,-1.275 -7.016,-0.709 -48.401,-0.638 -55.63,0 l -5.386,0.567 1.985,4.323 c 1.063,2.409 4.252,10.275 7.086,17.504 2.835,7.228 8.717,21.756 13.111,32.244 4.393,10.559 8.433,20.48 8.929,22.181 0.496,1.63 1.133,2.764 1.488,2.409 0.354,-0.354 6.023,-13.039 12.685,-28.204 z m -115.37,-50.032 c -0.638,-1.842 -0.921,-4.606 -0.78,-7.087 0.142,-2.267 0.071,-4.11 -0.141,-4.11 -0.567,0 -9.922,6.166 -11.197,7.37 -0.709,0.709 -0.142,1.063 2.976,1.772 2.126,0.496 5.244,1.772 6.945,2.905 1.701,1.134 3.118,2.126 3.118,2.126 0.071,0 -0.354,-1.346 -0.921,-2.976 z" /><g
       transform="translate(120.297,310.226)"
       id="g16"><text
         id="text20"
         style="font-variant:normal;font-weight:bold;font-size:27px;font-family:Cambria;-inkscape-font-specification:Cambria-Bold;writing-mode:lr-tb;fill:#13100f;fill-opacity:1;fill-rule:nonzero;stroke:none"
         transform="scale(1,-1)"><tspan
           id="tspan18"
           y="0"
           x="0 12.6549 27.105301 35.912701 56.189701 68.253304 82.5849 94.975197 104.8356 119.286 135.4104 147.40649 161.8569 178.1514 193.9572 208.40759 224.532 238.98241 247.47391 259.8642 274.1958">caférestaurantapaiser</tspan></text>
</g><g
       transform="matrix(1.0253,0,0,0.974039,-87.378,474.566)"
       id="g22"><g
         transform="translate(141.597,-372.946)"
         id="g24"><text
           id="text28"
           style="font-variant:normal;font-weight:bold;font-size:53.64260101px;font-family:Calibri;-inkscape-font-specification:Calibri-Bold;writing-mode:lr-tb;fill:#13100f;fill-opacity:1;fill-rule:nonzero;stroke:none"
           transform="scale(1,-1)"><tspan
             id="tspan26"
             y="0"
             x="0 28.393028 54.586708 70.61512 109.7474 159.67256 189.08481 216.08849 236.88573 254.95792 281.44125 310.22589 328.11569 354.59903 382.8848">Café&amp;Restaurant</tspan></text>
</g></g><g
       transform="matrix(1.0253,0,0,0.974039,-87.378,471.515)"
       id="g30"><g
         transform="translate(254.094,-432.461)"
         id="g32"><text
           id="text36"
           style="font-variant:normal;font-weight:bold;font-size:53.64260101px;font-family:Calibri;-inkscape-font-specification:Calibri-Bold;writing-mode:lr-tb;fill:#13100f;fill-opacity:1;fill-rule:nonzero;stroke:none"
           transform="scale(1,-1)"><tspan
             id="tspan34"
             y="0"
             x="0 22.497707 48.981056 73.259697 100.26338 129.10164 157.88626">Takeout</tspan></text>
</g></g></g></svg>